<svg width="28" height="28" viewBox="0 0 28 28" fill="none" xmlns="http://www.w3.org/2000/svg">
<path d="M14 2C7.37258 2 2 7.37258 2 14C2 20.6274 7.37258 26 14 26C20.6274 26 26 20.6274 26 14C26 7.37258 20.6274 2 14 2Z" stroke="#5cb9d8" stroke-width="3" stroke-linecap="round" stroke-linejoin="round"/>
<path d="M16.9166 8.74985C17.0698 8.59664 17.2517 8.47511 17.4519 8.39219C17.6521 8.30928 17.8666 8.2666 18.0833 8.2666C18.3 8.2666 18.5145 8.30928 18.7147 8.39219C18.9149 8.47511 19.0968 8.59664 19.25 8.74985C19.4032 8.90306 19.5247 9.08494 19.6076 9.28512C19.6905 9.4853 19.7332 9.69985 19.7332 9.91652C19.7332 10.1332 19.6905 10.3477 19.6076 10.5479C19.5247 10.7481 19.4032 10.93 19.25 11.0832L11.375 18.9582L8.16663 19.8332L9.04163 16.6249L16.9166 8.74985Z" stroke="#5cb9d8" stroke-width="2" stroke-linecap="round" stroke-linejoin="round"/>
</svg>
